<?xml version="1.0" standalone="no"?>
<!DOCTYPE svg PUBLIC "-//W3C//DTD SVG 20010904//EN"
 "http://www.w3.org/TR/2001/REC-SVG-20010904/DTD/svg10.dtd">
<svg version="1.0" xmlns="http://www.w3.org/2000/svg"
 width="640.000000pt" height="640.000000pt" viewBox="0 0 640.000000 640.000000"
 preserveAspectRatio="xMidYMid meet">
<metadata>
Created by potrace 1.14, written by Peter Selinger 2001-2017
</metadata>
<g transform="translate(0.000000,640.000000) scale(0.100000,-0.100000)"
fill="#000000" stroke="none">
<path d="M2592 6178 c-7 -7 -12 -17 -12 -23 0 -11 -59 -33 -106 -39 -17 -2
-42 -10 -55 -17 -13 -7 -33 -14 -44 -16 -45 -6 -55 -10 -72 -26 -11 -9 -27
-14 -40 -11 -40 11 -203 -102 -203 -141 0 -8 -6 -25 -12 -36 -11 -18 -10 -23
0 -26 20 -8 34 -50 43 -133 4 -41 13 -104 19 -140 6 -36 11 -74 11 -85 0 -10
4 -24 10 -31 5 -6 10 -29 10 -50 1 -22 7 -66 14 -99 8 -33 21 -105 30 -160 9
-55 21 -116 25 -135 30 -118 62 -271 66 -310 3 -25 9 -54 13 -65 17 -41 31
-102 42 -183 5 -46 14 -95 20 -109 5 -13 9 -37 9 -52 0 -16 6 -34 14 -40 9 -7
13 -26 12 -46 -3 -34 16 -76 28 -64 7 7 -10 190 -24 264 -5 28 -15 82 -21 120
-6 39 -15 79 -19 90 -5 11 -11 35 -14 53 -3 17 -9 47 -12 65 -3 17 -8 39 -11
47 -3 8 -7 29 -9 45 -6 61 -16 112 -36 195 -25 101 -47 219 -83 430 -14 85
-36 209 -48 275 -11 66 -21 129 -21 140 0 11 -4 23 -9 26 -9 6 54 52 88 66 8
2 17 13 20 24 4 12 16 19 32 19 15 0 34 7 43 15 9 8 36 17 60 19 70 8 104 17
123 34 9 8 40 16 70 18 28 1 61 5 72 8 11 2 32 5 48 5 18 1 27 6 27 17 0 13 8
15 43 10 23 -3 76 -8 117 -12 41 -3 82 -7 92 -10 9 -3 19 0 23 6 10 16 63 12
73 -7 8 -13 28 -17 103 -19 52 -2 94 -4 94 -4 0 -1 18 -3 40 -4 22 -1 46 -5
53 -10 7 -4 43 -7 80 -6 37 1 75 -1 86 -5 11 -5 21 -3 27 6 6 11 11 11 21 1 6
-6 28 -12 47 -12 40 0 37 -8 -5 -14 -34 -4 -64 -15 -82 -29 -11 -8 -11 -12 0
-19 10 -8 10 -11 1 -15 -10 -3 -9 -8 3 -20 14 -14 17 -13 38 6 17 16 30 20 50
15 14 -3 34 -3 43 2 20 9 42 11 168 17 50 2 107 6 128 8 21 3 41 1 43 -3 9
-14 42 -9 48 7 11 29 23 15 29 -31 4 -37 1 -50 -14 -65 -13 -13 -19 -33 -19
-63 0 -25 -4 -47 -9 -50 -4 -3 -11 -25 -15 -48 -4 -24 -13 -79 -22 -123 -8
-44 -16 -89 -18 -101 -1 -11 -6 -25 -10 -32 -4 -7 -9 -34 -11 -61 -1 -26 -7
-57 -13 -67 -6 -11 -13 -37 -17 -59 -4 -22 -14 -65 -22 -95 -31 -115 -32 -122
-20 -142 10 -15 9 -20 -2 -28 -9 -5 -15 -26 -16 -50 0 -23 -6 -44 -11 -48 -6
-4 -14 -23 -17 -42 -4 -19 -11 -55 -17 -80 -5 -25 -14 -78 -20 -118 -5 -40
-16 -88 -24 -105 -20 -44 -28 -134 -17 -181 12 -48 6 -62 -27 -71 -39 -10 -92
-53 -92 -75 0 -28 15 -32 40 -10 13 11 29 20 37 20 7 0 13 5 13 10 0 6 11 10
25 10 47 0 54 30 44 195 -1 11 6 45 15 75 23 79 64 248 71 295 5 37 16 78 45
180 7 22 18 78 25 125 19 126 44 246 67 324 11 38 22 91 24 118 2 26 8 57 14
67 5 11 10 29 10 40 0 11 9 49 19 83 26 87 42 160 43 199 1 26 -6 39 -33 61
-18 15 -45 28 -59 28 -75 0 -478 20 -560 29 -52 5 -149 12 -215 16 -66 3 -140
10 -165 15 -25 5 -83 12 -130 15 -47 4 -98 9 -115 11 -87 12 -232 13 -243 2z
m1083 -118 c-3 -5 -13 -10 -21 -10 -8 0 -12 5 -9 10 3 6 13 10 21 10 8 0 12
-4 9 -10z"/>
<path d="M2801 5984 c0 -11 3 -14 6 -6 3 7 2 16 -1 19 -3 4 -6 -2 -5 -13z"/>
<path d="M2140 5901 c-13 -25 -13 -41 0 -41 6 0 10 7 10 15 0 8 4 15 9 15 5 0
11 7 15 15 8 22 -21 19 -34 -4z"/>
<path d="M3427 5793 c-4 -3 -7 -13 -7 -21 0 -12 3 -12 15 -2 8 7 15 16 15 21
0 11 -14 12 -23 2z"/>
<path d="M3425 5723 c3 -16 11 -32 16 -38 7 -7 8 -4 4 6 -4 10 -2 20 4 24 19
11 12 35 -10 35 -18 0 -20 -4 -14 -27z"/>
<path d="M2997 5693 c-15 -15 2 -187 24 -238 12 -29 29 -133 42 -266 7 -64 18
-123 25 -132 10 -12 11 -19 1 -35 -10 -16 -9 -29 4 -69 9 -27 14 -59 11 -71
-10 -37 34 -110 50 -83 6 9 -11 176 -24 241 -5 25 -12 86 -16 135 -3 50 -10
113 -15 140 -5 28 -16 95 -25 150 -30 202 -49 257 -77 228z"/>
<path d="M3415 5569 c-9 -28 1 -36 14 -10 7 12 7 22 2 26 -5 3 -13 -4 -16 -16z"/>
<path d="M2424 5517 c-6 -15 56 -208 74 -229 6 -7 13 -40 16 -73 8 -92 12
-109 24 -113 7 -2 10 -7 7 -12 -6 -10 20 -187 33 -221 6 -14 10 -41 11 -60 0
-50 15 -94 32 -94 19 0 23 47 9 120 -6 33 -11 73 -10 88 0 15 -5 38 -12 50 -6
12 -12 43 -13 68 -2 42 -14 98 -51 239 -8 30 -20 73 -25 95 -29 114 -49 155
-75 155 -8 0 -17 -6 -20 -13z"/>
<path d="M4812 5288 c-8 -8 -8 -15 -1 -24 6 -7 9 -21 6 -31 -3 -15 -6 -14 -14
7 -8 18 -12 21 -16 10 -2 -8 -12 -40 -22 -70 -20 -59 -22 -87 -25 -325 0 -11
0 -101 1 -200 0 -99 0 -184 0 -190 0 -5 -3 -98 -6 -205 -7 -240 -7 -219 1
-257 7 -35 -10 -47 -19 -14 -2 10 -14 24 -26 30 -18 10 -25 8 -46 -13 -15 -15
-25 -37 -25 -54 0 -16 -9 -41 -20 -55 -23 -30 -28 -120 -8 -174 10 -27 10 -38
0 -53 -16 -26 -15 -82 1 -104 10 -14 23 -17 45 -14 30 4 32 2 38 -31 9 -53 9
-53 -9 -93 -10 -21 -17 -42 -17 -49 0 -6 -6 -9 -12 -6 -19 6 -15 83 5 105 21
23 21 32 3 32 -8 0 -17 -7 -20 -16 -3 -8 -10 -12 -16 -9 -6 4 -8 10 -5 15 10
16 -8 40 -30 40 -24 0 -65 -42 -65 -65 0 -7 -7 -18 -15 -25 -13 -10 -12 -15 3
-36 10 -14 27 -23 43 -24 l26 0 -15 -47 -16 -46 -20 42 c-17 35 -24 41 -42 37
-13 -4 -31 1 -44 12 -21 17 -21 18 -3 37 26 28 24 156 -2 185 -20 22 -19 25
11 34 30 9 49 -16 32 -43 -7 -11 -9 -23 -5 -27 15 -15 30 16 39 76 4 34 17 89
28 123 45 136 36 197 -28 197 -28 0 -33 3 -28 17 14 37 27 166 18 175 -12 12
-27 -26 -17 -42 3 -6 -1 -17 -9 -26 -9 -8 -16 -23 -16 -32 0 -10 -6 -26 -14
-37 -18 -28 -26 -76 -15 -97 7 -13 17 -16 39 -12 24 5 29 3 29 -12 0 -11 3
-38 7 -61 6 -38 4 -44 -29 -77 -31 -30 -37 -33 -48 -20 -8 10 -21 13 -38 9
-14 -3 -21 -2 -15 2 15 11 11 126 -5 131 -9 3 -9 7 0 18 7 8 13 29 15 47 7 70
17 123 26 134 17 21 26 69 16 87 -9 16 -11 16 -28 1 -11 -10 -22 -31 -25 -49
-4 -17 -13 -50 -22 -72 -12 -33 -12 -46 -3 -64 6 -12 9 -25 5 -28 -10 -10 -35
29 -35 55 0 15 -6 23 -16 23 -13 0 -15 -7 -10 -31 3 -17 6 -37 6 -45 0 -7 8
-20 17 -30 9 -9 18 -24 19 -33 0 -9 5 -33 9 -54 6 -31 5 -36 -8 -32 -8 4 -17
-1 -21 -10 -7 -20 -26 -10 -26 13 0 21 -49 72 -71 72 -9 0 -22 6 -29 14 -13
17 -40 10 -40 -9 0 -7 15 -20 33 -28 44 -21 99 -98 78 -111 -4 -3 -20 4 -37
15 -73 48 -73 0 1 -78 34 -36 60 -73 67 -98 6 -22 18 -46 26 -52 9 -7 12 -16
8 -20 -4 -4 -18 6 -31 22 l-24 30 -21 -21 -21 -21 23 -15 c13 -8 35 -18 50
-22 19 -4 30 -15 34 -34 4 -15 10 -31 14 -37 9 -12 22 -65 16 -65 -2 0 -17 7
-32 15 -66 34 -71 13 -9 -39 32 -28 46 -48 51 -75 4 -20 13 -49 21 -65 9 -16
17 -41 19 -55 11 -88 28 -158 40 -172 8 -9 11 -19 7 -23 -4 -4 0 -12 10 -17
10 -6 17 -22 17 -39 0 -16 5 -32 10 -35 6 -3 10 -36 10 -72 0 -51 4 -69 17
-78 15 -11 15 -15 4 -29 -7 -9 -12 -16 -10 -17 2 0 12 -2 22 -4 28 -5 31 -12
18 -43 -14 -34 -5 -82 15 -82 8 0 14 -10 15 -22 2 -49 6 -69 18 -81 9 -9 10
-3 5 23 -5 34 -5 34 11 15 12 -16 14 -32 9 -75 -4 -30 -10 -63 -15 -72 -12
-23 -11 -88 1 -88 16 0 12 -27 -5 -34 -18 -7 -20 -32 -2 -39 10 -4 10 -6 0 -6
-7 -1 -13 -12 -13 -26 0 -29 8 -32 26 -7 11 14 13 2 14 -86 0 -66 -4 -101 -10
-97 -5 3 -10 19 -10 36 0 16 -3 29 -8 29 -9 0 -7 -58 4 -84 5 -13 4 -17 -3
-13 -23 14 -26 -61 -4 -87 11 -13 11 -19 1 -31 -15 -18 -4 -71 18 -85 16 -9
16 -11 0 -20 -12 -8 -16 -24 -16 -65 1 -56 7 -66 27 -41 7 8 23 17 36 20 14 4
25 11 25 16 0 5 5 21 11 37 6 15 10 46 9 68 -5 80 -4 173 3 305 4 74 7 144 7
155 -8 203 -18 283 -40 324 -5 11 -10 32 -10 48 0 16 -12 71 -26 123 -39 145
-39 143 -12 176 14 16 30 44 38 62 7 19 32 54 55 78 69 72 115 128 115 141 0
17 69 93 85 93 6 0 25 11 41 25 16 14 34 25 40 25 7 0 14 7 18 15 3 8 14 15
24 15 23 0 42 19 42 43 0 14 6 18 28 15 19 -2 27 -9 27 -23 0 -11 4 -26 8 -33
5 -7 4 -19 -3 -27 -8 -10 -9 -19 0 -35 20 -38 29 -11 24 76 -6 93 9 110 20 24
7 -51 22 -64 45 -36 12 15 12 74 -1 82 -20 12 -6 32 20 29 42 -3 49 -11 57
-55 4 -22 11 -42 16 -46 5 -3 9 -20 9 -38 0 -47 19 -95 42 -107 14 -7 17 -14
9 -18 -25 -16 -16 -131 11 -131 11 0 -2 -101 -18 -137 -8 -17 -14 -36 -14 -41
0 -10 -52 -52 -64 -52 -3 0 -6 11 -6 24 0 35 -19 44 -75 37 -45 -5 -50 -9 -53
-33 -3 -24 1 -28 35 -33 58 -10 65 -13 59 -32 -16 -59 -18 -85 -5 -81 11 4 17
-15 24 -71 8 -62 13 -76 29 -79 26 -5 36 16 31 65 l-4 43 39 0 c29 0 42 -5 50
-19 5 -11 18 -22 29 -26 16 -5 19 -16 19 -66 0 -33 6 -75 15 -92 8 -18 20 -54
27 -82 6 -27 18 -54 26 -58 18 -10 18 -27 -1 -27 -18 0 -19 -14 -3 -43 11 -20
19 -54 34 -142 3 -16 9 -39 14 -50 5 -11 14 -47 21 -80 6 -33 17 -67 23 -75 7
-8 18 -39 24 -68 15 -67 65 -183 103 -239 16 -23 29 -49 29 -58 0 -8 7 -27 16
-40 25 -39 8 -91 -28 -86 -4 0 -18 -13 -32 -29 -24 -30 -26 -30 -105 -27 -61
3 -81 1 -85 -9 -3 -8 -16 -14 -28 -14 -14 0 -33 -13 -47 -30 -13 -16 -27 -27
-32 -24 -5 3 -9 1 -9 -4 0 -5 -10 -13 -22 -19 -116 -55 -167 -84 -206 -120
-28 -26 -58 -44 -79 -48 -18 -3 -41 -9 -51 -14 -9 -5 -36 -17 -59 -26 -24 -10
-43 -21 -43 -25 0 -4 -21 -11 -46 -15 -33 -5 -48 -12 -51 -25 -6 -21 -51 -40
-97 -40 -17 0 -41 -7 -52 -15 -12 -8 -24 -12 -27 -9 -9 9 -161 -46 -174 -63
-7 -9 -21 -13 -33 -10 -11 3 -20 2 -20 -2 0 -11 -82 -56 -106 -58 -12 -1 -63
-23 -114 -49 -52 -27 -104 -47 -116 -46 -12 1 -25 -5 -28 -13 -3 -8 -14 -15
-25 -15 -11 0 -37 -9 -58 -21 -20 -11 -58 -32 -85 -46 -46 -24 -52 -32 -49
-60 1 -7 -7 -17 -18 -23 -29 -15 -141 -125 -141 -139 0 -6 -7 -11 -15 -11 -8
0 -26 -17 -39 -38 -43 -67 -193 -225 -206 -217 -6 4 -8 10 -5 15 3 5 1 11 -4
14 -5 3 -23 34 -40 69 -17 34 -42 80 -55 102 -14 22 -34 60 -46 85 -12 25 -28
58 -36 73 -8 16 -14 36 -14 45 0 9 -10 33 -22 52 -42 66 -47 75 -57 97 -5 11
-14 24 -20 27 -5 4 -17 31 -26 61 -8 30 -20 55 -25 55 -6 0 -10 13 -10 29 0
17 -4 32 -9 36 -5 3 -12 19 -16 35 -4 17 -11 30 -16 30 -5 0 -9 6 -9 14 0 7
-6 19 -14 25 -7 6 -16 29 -19 50 -5 41 -37 130 -91 253 -9 20 -16 39 -16 42 0
3 -13 33 -29 68 -32 70 -51 133 -51 169 0 13 -9 37 -19 53 -11 17 -18 33 -15
38 3 4 -2 11 -10 14 -9 3 -18 21 -22 40 -4 21 -12 34 -21 34 -11 0 -14 -6 -9
-22 3 -13 6 -33 6 -45 0 -13 6 -23 13 -23 9 0 11 -20 10 -72 -1 -43 3 -78 10
-86 9 -11 7 -17 -5 -26 -15 -11 -17 -34 -15 -183 1 -117 -2 -174 -10 -184 -13
-16 -5 -155 8 -142 5 5 15 85 24 178 16 174 41 315 57 315 4 0 6 -11 2 -25 -4
-17 -1 -27 9 -31 8 -3 18 -21 22 -41 3 -19 10 -43 15 -52 5 -9 16 -40 25 -68
9 -29 21 -53 26 -53 5 0 9 -17 9 -38 0 -21 11 -61 25 -88 14 -27 30 -67 36
-89 6 -22 17 -47 25 -56 8 -9 19 -31 24 -49 8 -27 6 -40 -11 -67 -11 -18 -22
-50 -23 -71 -1 -20 -6 -46 -12 -57 -18 -33 -25 -73 -14 -80 7 -4 7 -11 2 -18
-5 -7 -15 -34 -21 -62 -7 -27 -18 -61 -24 -74 -7 -13 -12 -46 -12 -73 0 -26
-3 -48 -7 -48 -5 0 -8 -14 -8 -30 0 -17 -9 -58 -20 -91 -11 -33 -18 -64 -15
-69 3 -5 -1 -25 -9 -45 l-15 -36 107 3 106 3 7 30 c4 17 19 74 34 127 14 54
29 131 32 170 5 65 15 93 50 137 5 6 53 -41 66 -64 6 -11 12 -37 13 -57 2 -43
35 -107 81 -161 18 -20 33 -44 33 -52 0 -8 5 -15 10 -15 6 0 10 -6 10 -14 0
-7 7 -19 15 -26 8 -7 15 -20 15 -30 0 -10 -7 -20 -15 -24 -8 -3 -15 -10 -15
-16 0 -13 36 -13 62 1 16 8 30 8 59 -1 43 -15 81 -8 109 20 22 22 37 25 42 10
3 -10 50 1 90 21 10 5 25 9 33 9 8 0 14 3 14 8 -3 18 2 24 14 14 9 -8 31 -2
82 24 39 19 74 39 79 45 6 5 18 9 28 9 11 0 18 7 18 20 0 23 29 27 48 8 9 -9
12 -8 12 5 0 12 8 17 25 17 14 0 28 7 32 15 3 9 13 15 22 13 9 -1 26 3 39 10
20 12 22 11 22 -14 0 -15 13 -50 29 -78 16 -28 37 -77 46 -108 15 -54 19 -58
46 -58 16 0 29 1 29 3 -1 14 -33 101 -49 132 -12 21 -21 52 -21 67 0 37 -20
78 -38 78 -12 0 -12 4 3 20 10 12 25 18 33 15 8 -3 16 3 19 15 4 15 14 20 37
20 20 0 35 7 44 20 7 11 21 20 31 20 10 0 29 8 42 18 13 11 36 22 52 26 15 3
36 15 47 26 11 11 27 20 36 20 8 0 12 4 9 10 -3 6 1 7 9 4 10 -4 18 1 23 12
10 27 32 41 76 48 42 7 70 21 105 51 13 11 37 20 54 21 18 1 42 13 62 33 18
17 37 31 44 31 7 0 12 5 12 10 0 6 8 10 18 10 10 0 27 7 38 15 10 8 27 15 36
15 9 0 21 6 25 13 4 7 23 19 41 26 17 8 32 19 32 27 0 7 6 11 13 8 8 -3 20 2
27 11 7 8 18 15 25 15 7 0 15 7 19 15 3 10 19 15 44 15 28 0 47 7 66 25 16 14
39 25 55 25 17 0 31 7 35 16 3 8 11 12 16 9 6 -4 17 -1 25 5 9 8 28 10 50 6
31 -6 36 -4 44 18 11 28 48 56 74 56 23 0 93 70 108 107 6 16 13 44 15 63 2
19 8 72 14 118 6 46 8 88 5 93 -3 5 -1 17 4 28 8 15 3 36 -24 98 -19 43 -40
87 -46 98 -51 87 -64 122 -138 370 -31 107 -82 335 -123 553 -7 41 -15 55 -33
62 -13 5 -27 15 -31 22 -5 7 -7 69 -6 138 2 69 -2 152 -8 185 -6 33 -17 94
-24 135 -7 41 -17 84 -23 95 -6 11 -13 44 -15 73 l-5 53 53 -93 c29 -50 60
-95 68 -100 22 -13 21 9 -5 61 -14 30 -17 47 -10 54 14 14 61 -7 61 -27 0 -12
6 -13 22 -7 12 4 23 12 25 18 9 27 -162 223 -194 223 -25 0 -14 -39 12 -46 34
-8 68 -65 59 -98 -8 -32 -16 -33 -29 -3 -6 12 -23 47 -39 77 -15 30 -33 66
-40 80 -6 14 -22 26 -34 28 -15 2 -22 9 -20 20 3 13 13 16 45 14 41 -2 62 15
46 41 -3 6 4 3 18 -6 32 -23 47 -21 52 6 3 21 4 20 16 -7 9 -22 15 -26 23 -18
17 17 21 15 54 -13 16 -14 33 -25 38 -25 5 0 3 -7 -4 -14 -14 -17 -6 -216 10
-245 5 -10 8 -26 6 -37 -2 -10 -1 -13 1 -6 3 8 12 10 24 7 25 -8 59 3 59 19 0
8 7 20 16 27 9 7 20 23 25 36 12 33 29 28 31 -9 1 -18 3 -53 4 -78 2 -25 4
-54 4 -65 1 -11 -2 -48 -6 -83 -6 -52 -11 -65 -28 -72 -57 -22 -75 -95 -39
-160 25 -44 53 -49 97 -15 44 33 59 104 29 139 -15 17 -18 33 -15 89 4 68 15
85 31 45 5 -13 22 -35 37 -49 23 -21 34 -25 52 -18 27 10 29 55 7 139 -16 62
-51 97 -99 102 -27 3 -30 8 -48 71 -10 40 -37 97 -62 135 -37 58 -50 69 -87
80 -24 7 -53 20 -63 27 -17 13 -18 17 -5 32 28 36 49 82 49 110 0 31 -26 63
-51 63 -34 -1 -109 -91 -109 -131 0 -22 -5 -29 -19 -29 -10 0 -24 -6 -30 -14
-12 -14 -35 -16 -46 -4 -3 3 5 18 19 33 15 16 26 37 26 49 -1 30 -25 58 -47
54 -15 -3 -17 -12 -15 -50 2 -26 -1 -55 -6 -64 -9 -16 -11 -15 -21 4 -18 35
-31 26 -31 -22 0 -25 -6 -48 -14 -55 -26 -21 -61 -22 -83 -1 -34 31 -69 36
-83 11 -6 -12 -7 -22 -3 -22 4 -1 14 -2 22 -3 20 -2 40 -37 24 -43 -7 -3 -13
-13 -13 -24 0 -10 -3 -19 -6 -19 -11 0 -36 31 -39 48 -1 9 -10 16 -19 16 -24
-2 -20 10 21 74 55 83 106 147 193 242 43 47 90 104 127 153 15 21 51 66 78
99 28 33 66 84 85 113 19 29 42 63 51 76 42 64 88 148 98 181 7 21 17 40 22
43 16 10 10 98 -9 122 -24 31 -66 31 -137 -1 -67 -30 -240 -143 -269 -175
l-20 -22 -41 46 c-40 43 -43 44 -76 34 -19 -7 -53 -21 -76 -32 -23 -12 -45
-18 -50 -14 -4 4 -1 23 6 42 15 43 8 238 -13 345 -25 125 -72 280 -96 312 -12
16 -19 36 -16 43 6 16 -46 85 -77 102 -28 16 -70 16 -85 1z m22 -253 c11 -8
16 -18 12 -22 -3 -4 -16 3 -28 15 -25 25 -13 29 16 7z m-42 -280 c-6 -34 -12
-32 -12 6 0 16 4 28 9 25 4 -3 6 -17 3 -31z m938 -165 c0 -11 -4 -20 -10 -20
-5 0 -10 9 -10 20 0 11 5 20 10 20 6 0 10 -9 10 -20z m-947 -157 c-3 -7 -9
-13 -14 -13 -11 0 -12 34 -2 43 9 10 22 -13 16 -30z m720 -280 c2 -5 -7 -26
-19 -48 -19 -32 -24 -36 -24 -18 0 12 5 25 10 28 6 3 10 15 10 26 0 19 15 26
23 12z m-263 -73 c-20 -13 -40 -13 -40 0 0 6 12 10 28 10 21 0 24 -2 12 -10z
m-550 -180 c6 0 10 -13 10 -29 0 -17 4 -32 9 -35 5 -4 7 4 4 16 -4 17 -3 20 6
12 16 -14 3 -131 -15 -138 -16 -6 -18 12 -4 48 5 14 7 33 3 43 -5 14 -8 13
-15 -6 -4 -12 -12 -20 -18 -16 -6 4 -5 13 3 26 10 16 9 25 -5 50 -19 32 -23
70 -11 83 4 4 11 -6 16 -23 4 -17 12 -31 17 -31z m-46 -111 c-12 -20 -24 -7
-24 29 l0 37 15 -29 c8 -15 12 -32 9 -37z m954 -81 c2 -9 -18 -38 -44 -64 -51
-53 -52 -46 -13 44 13 31 24 43 36 40 10 -2 19 -11 21 -20z m-1260 -33 c21
-33 32 -90 13 -69 -9 10 -61 102 -61 109 0 13 28 -10 48 -40z m365 -56 c10 -2
17 -8 17 -14 -1 -5 -7 -9 -12 -7 -6 1 -15 -2 -22 -7 -13 -11 -57 6 -63 25 -6
18 40 35 52 19 6 -7 18 -14 28 -16z m39 -61 c-7 -7 -12 -8 -12 -2 0 6 3 14 7
17 3 4 9 5 12 2 2 -3 -1 -11 -7 -17z m534 -73 c4 -8 12 -15 20 -15 8 0 14 -4
14 -10 0 -15 -6 -12 -36 15 -15 14 -22 25 -15 25 6 0 14 -7 17 -15z m-73 -22
c8 -7 -11 -33 -23 -33 -5 0 -6 9 -3 20 5 20 15 25 26 13z m-133 -17 c0 -16
-28 -42 -36 -33 -7 6 18 47 28 47 5 0 8 -6 8 -14z m635 -59 c7 -45 -12 -118
-32 -124 -16 -6 -36 100 -28 153 6 43 6 44 30 28 17 -11 26 -29 30 -57z m-750
-7 c-3 -5 -10 -10 -16 -10 -5 0 -9 5 -9 10 0 6 7 10 16 10 8 0 12 -4 9 -10z
m-285 -66 c0 -8 -4 -12 -10 -9 -5 3 -10 13 -10 21 0 8 5 12 10 9 6 -3 10 -13
10 -21z m214 -20 c4 -10 -2 -14 -18 -14 -12 0 -31 -9 -41 -20 -19 -21 -55 -27
-55 -10 0 5 10 15 22 21 12 6 30 20 41 30 21 19 42 16 51 -7z m-180 -73 c8
-12 -14 -27 -46 -33 -20 -4 -28 -1 -28 9 0 22 63 43 74 24z m1216 -78 c0 -12
4 -23 10 -25 6 -2 7 -15 2 -31 l-7 -27 -27 25 c-17 15 -25 31 -21 41 3 8 0 27
-8 41 -12 22 -11 27 6 39 18 14 21 13 32 -13 7 -15 12 -38 13 -50z m-1430 48
c0 -5 -9 -19 -20 -32 -17 -20 -21 -22 -29 -9 -16 25 -13 35 11 42 34 9 38 9
38 -1z m58 -33 c-7 -20 -48 -23 -48 -4 0 11 9 16 26 16 16 0 24 -5 22 -12z
m1243 -237 c19 -17 20 -23 8 -55 -11 -29 -15 -33 -31 -25 -24 13 -25 99 -1 99
2 0 13 -9 24 -19z m-373 -153 c-6 -18 -28 -21 -28 -4 0 9 7 16 16 16 9 0 14
-5 12 -12z m-488 -1848 c0 -5 -7 -10 -15 -10 -8 0 -15 5 -15 10 0 6 7 10 15
10 8 0 15 -4 15 -10z m-1834 -282 c-4 -40 -15 -68 -28 -68 -10 0 -2 53 14 83
13 25 17 21 14 -15z m31 -102 c0 -33 -3 -41 -12 -33 -20 21 -26 47 -10 47 8 0
15 7 15 15 0 8 2 15 3 15 2 0 4 -20 4 -44z m37 9 c3 -8 1 -15 -4 -15 -6 0 -10
7 -10 15 0 8 2 15 4 15 2 0 6 -7 10 -15z m-94 -42 c0 -22 -2 -25 -10 -13 -13
20 -13 40 0 40 6 0 10 -12 10 -27z m100 -13 c-8 -5 -18 -6 -24 -3 -5 4 -1 10
10 13 24 9 34 2 14 -10z m-129 -33 c-10 -9 -11 -8 -5 6 3 10 9 15 12 12 3 -3
0 -11 -7 -18z m67 -13 c-4 -3 -12 5 -18 18 -12 22 -12 22 6 6 10 -10 15 -20
12 -24z m-51 -38 c-4 -10 0 -12 15 -8 14 3 19 1 16 -8 -6 -20 -33 -34 -52 -27
-13 5 -14 11 -4 32 12 26 34 36 25 11z m-26 -89 c-16 -16 -26 0 -10 19 9 11
15 12 17 4 2 -6 -1 -17 -7 -23z m-19 -39 c-7 -7 -12 -8 -12 -2 0 14 12 26 19
19 2 -3 -1 -11 -7 -17z"/>
<path d="M4591 4826 c-13 -16 -8 -83 10 -116 4 -8 11 -24 14 -35 5 -13 9 -15
12 -7 8 20 21 14 30 -13 l8 -26 23 21 c24 23 27 45 12 84 -13 36 -39 33 -47
-4 -10 -53 -23 -43 -23 17 0 69 -18 105 -39 79z"/>
<path d="M2858 4590 c-24 -13 -38 -28 -38 -40 0 -27 45 -38 68 -17 9 8 28 17
42 19 19 2 25 9 25 28 0 21 -5 25 -30 27 -16 2 -47 -6 -67 -17z"/>
<path d="M5854 4547 c-3 -13 -4 -41 -2 -63 2 -31 7 -39 23 -39 24 0 42 57 31
99 -8 34 -43 36 -52 3z"/>
<path d="M5952 4443 c-14 -28 -22 -82 -13 -87 16 -10 53 41 49 70 -4 33 -23
42 -36 17z"/>
<path d="M4015 4341 c-11 -5 -29 -18 -39 -30 -17 -19 -18 -28 -8 -97 10 -72
30 -114 55 -114 6 0 21 -10 33 -21 13 -12 34 -27 46 -33 15 -8 25 -24 29 -46
l6 -35 10 26 c21 49 -10 109 -57 109 -39 0 -95 95 -87 147 8 46 23 63 58 63
22 0 29 5 29 20 0 15 -6 20 -27 19 -16 0 -37 -4 -48 -8z"/>
<path d="M4100 4302 c0 -26 94 -141 106 -130 13 14 -30 112 -54 123 -12 5 -22
13 -22 17 0 5 -7 8 -15 8 -8 0 -15 -8 -15 -18z"/>
<path d="M4472 4293 c-15 -6 -42 -56 -42 -79 0 -10 5 -14 15 -11 8 4 17 2 20
-3 14 -23 33 -8 39 32 7 43 -7 70 -32 61z"/>
<path d="M3565 4270 c-12 -4 -27 -15 -34 -24 -7 -9 -18 -16 -24 -16 -6 0 -18
-7 -27 -15 -10 -9 -43 -31 -74 -50 -41 -24 -56 -30 -56 -19 0 8 -5 12 -10 9
-8 -5 -8 -11 0 -20 8 -10 8 -19 -1 -34 -11 -17 -10 -23 4 -39 9 -10 17 -26 17
-35 0 -21 26 -22 73 -2 47 20 55 34 28 54 -29 22 -21 41 35 80 24 18 44 38 44
46 0 8 16 16 38 20 35 6 38 9 34 31 -5 25 -14 28 -47 14z"/>
<path d="M3360 4214 c0 -8 5 -12 10 -9 6 3 10 10 10 16 0 5 -4 9 -10 9 -5 0
-10 -7 -10 -16z"/>
<path d="M4220 4137 c0 -25 17 -47 37 -47 22 0 14 37 -12 54 -24 16 -25 16
-25 -7z"/>
<path d="M3810 4123 c-14 -2 -34 -8 -45 -13 -52 -23 -155 -27 -212 -9 -54 17
-77 -14 -24 -32 16 -6 32 -16 34 -23 9 -23 150 -11 208 18 37 19 49 14 49 -20
0 -16 12 -36 30 -52 20 -18 30 -36 30 -54 0 -16 4 -28 8 -28 4 0 28 -18 52
-41 24 -23 54 -48 67 -56 26 -17 53 -11 53 12 0 19 -93 111 -132 131 -33 17
-68 81 -68 122 0 35 -16 49 -50 45z"/>
<path d="M2405 4100 c3 -5 8 -10 11 -10 2 0 4 5 4 10 0 6 -5 10 -11 10 -5 0
-7 -4 -4 -10z"/>
<path d="M2725 4105 c-5 -2 -62 -8 -126 -14 -150 -13 -218 -44 -186 -84 10
-13 20 -13 67 -4 30 7 60 15 66 20 7 4 23 7 35 6 13 0 49 2 79 6 101 12 108
10 166 -49 30 -30 54 -63 54 -73 0 -10 6 -28 14 -39 28 -39 30 -90 7 -130 -12
-20 -19 -44 -16 -52 3 -8 -4 -23 -15 -34 -12 -12 -21 -33 -21 -56 -3 -65 -4
-70 -11 -78 -14 -14 -7 -39 18 -69 23 -27 26 -28 21 -7 -3 12 -1 19 4 16 5 -3
17 8 27 25 9 17 20 31 25 31 4 0 7 7 7 15 0 25 -38 17 -53 -12 l-14 -27 -5 37
c-2 20 -1 37 4 37 4 0 5 7 1 15 -3 9 1 23 9 33 8 9 20 31 27 47 6 17 20 41 31
55 l18 25 7 -27 c4 -14 1 -36 -5 -48 -10 -19 -9 -22 11 -27 22 -6 22 -6 -6
-28 -15 -13 -26 -27 -24 -33 6 -17 73 21 79 45 3 12 20 38 38 58 29 34 46 85
22 70 -5 -3 -10 -15 -10 -26 0 -14 -7 -19 -25 -19 -13 0 -28 -7 -33 -16 -13
-23 -21 -5 -26 57 -2 30 -11 70 -19 89 -9 19 -26 63 -37 96 -15 42 -38 79 -73
118 -45 48 -57 56 -87 55 -19 0 -39 -2 -45 -4z"/>
<path d="M3313 3986 c-25 -12 -32 -46 -10 -46 16 0 47 32 47 48 0 14 -7 14
-37 -2z"/>
<path d="M3241 3926 c-9 -11 -7 -15 9 -19 13 -3 20 0 20 8 0 21 -16 27 -29 11z"/>
<path d="M3180 3857 c-31 -29 -60 -68 -60 -82 0 -9 61 49 82 78 29 40 18 42
-22 4z"/>
<path d="M3995 3779 c-4 -6 -13 -8 -19 -6 -7 3 -32 -3 -56 -14 -41 -18 -42
-20 -27 -42 8 -12 18 -22 23 -23 32 -2 132 -16 145 -20 9 -3 31 -18 49 -35 17
-17 38 -28 45 -25 27 10 26 -14 -2 -38 -25 -22 -26 -26 -14 -52 11 -25 14 -26
20 -11 3 9 21 26 39 37 32 20 32 21 17 50 -8 16 -22 33 -31 38 -8 5 -21 19
-28 33 -6 13 -33 34 -59 47 -29 13 -51 32 -57 47 -10 26 -34 33 -45 14z"/>
<path d="M2037 3760 c-27 -26 -41 -145 -25 -195 7 -21 18 -40 25 -42 9 -3 12
21 10 93 -2 95 8 135 31 120 6 -3 14 -21 17 -38 4 -18 14 -38 22 -46 9 -9 13
-29 11 -51 -3 -31 0 -36 19 -39 16 -2 26 4 34 22 15 32 40 42 56 20 9 -13 9
-21 -1 -38 -8 -11 -21 -46 -31 -76 -33 -102 -50 -140 -62 -140 -7 0 -10 7 -7
15 4 8 2 15 -4 15 -6 0 -12 -6 -15 -12 -3 -9 -10 -6 -22 10 -9 12 -20 22 -26
22 -12 0 -12 -37 1 -45 6 -3 10 -16 10 -29 0 -24 67 -194 101 -258 l20 -38
-108 2 c-143 3 -270 -31 -292 -78 -6 -13 -16 -24 -23 -24 -17 -1 -76 -79 -78
-105 -5 -48 13 -64 26 -23 4 13 24 39 45 58 20 19 39 43 41 54 2 12 24 26 68
43 36 13 72 28 80 32 15 6 61 6 150 -3 76 -8 95 -11 105 -17 17 -9 75 -10 75
0 0 5 -10 12 -22 16 -20 6 -20 8 -5 12 9 2 17 11 17 19 0 8 5 12 10 9 6 -3 10
-20 10 -36 0 -36 25 -89 43 -89 27 -1 96 -41 168 -98 33 -27 36 -37 12 -46
-11 -5 -22 -1 -30 10 -10 13 -17 15 -35 7 l-22 -10 27 -23 c22 -20 27 -32 26
-69 l-1 -46 -18 40 c-11 22 -22 49 -25 60 -5 18 -8 17 -22 -12 l-16 -32 -26
24 c-14 13 -39 35 -56 49 l-30 25 40 -6 c22 -3 48 -10 57 -14 24 -13 32 6 16
38 -15 32 -47 40 -87 23 -15 -6 -38 -11 -52 -11 -13 1 -34 1 -47 1 -34 0 -70
-28 -99 -79 -22 -38 -58 -88 -103 -144 -4 -4 -5 16 -2 46 4 49 2 56 -23 75
-15 12 -42 22 -59 22 -49 0 -126 -42 -181 -98 -27 -28 -54 -52 -58 -52 -5 0
-5 29 -2 65 7 65 0 80 -24 51 -19 -23 -23 -143 -5 -161 21 -21 28 -19 64 14
17 17 45 42 61 57 16 15 35 29 42 30 7 1 34 9 61 18 27 9 55 15 61 12 9 -3 11
-30 8 -90 -3 -72 -1 -88 12 -93 18 -6 76 52 102 102 8 17 22 38 30 47 9 10 12
25 8 39 -6 18 -4 21 10 15 12 -4 28 4 52 29 27 28 40 34 68 32 39 -2 44 -12
17 -36 -29 -25 -33 -57 -10 -86 11 -14 28 -25 39 -25 23 0 24 -17 4 -44 -18
-24 -19 -58 -3 -89 6 -12 14 -29 19 -38 4 -10 -1 -28 -13 -47 -22 -35 -46 -40
-106 -23 -20 6 -32 6 -32 0 0 -5 -6 -9 -12 -7 -40 7 -108 -42 -108 -78 0 -12
-7 -38 -15 -57 -8 -20 -15 -44 -15 -54 0 -24 50 -52 73 -41 9 4 25 12 35 17 9
4 17 14 17 22 0 8 8 15 18 17 13 3 17 -3 17 -22 0 -16 6 -26 15 -26 8 0 15 8
15 18 0 24 29 82 41 82 9 0 15 -84 10 -145 -1 -16 -13 -46 -26 -65 -14 -20
-29 -62 -34 -95 -15 -93 -23 -119 -37 -128 -8 -4 -14 -19 -14 -32 0 -14 -4
-25 -10 -25 -31 0 -49 -122 -22 -152 14 -16 13 -18 -1 -18 -13 0 -17 -10 -17
-46 0 -25 4 -53 9 -62 5 -10 4 -27 -2 -42 -11 -27 -15 -56 -20 -140 -2 -30 -7
-63 -11 -72 -4 -9 -5 -22 -1 -28 4 -7 -1 -18 -12 -25 -11 -7 -25 -33 -33 -57
-7 -24 -17 -48 -22 -54 -4 -6 -9 -24 -11 -40 -3 -26 -10 -46 -34 -104 -3 -8
-5 -22 -4 -32 1 -9 -3 -19 -9 -23 -5 -3 -10 -19 -10 -36 0 -16 -4 -29 -10 -29
-5 0 -10 -4 -10 -10 0 -20 29 -10 36 13 6 16 10 6 15 -43 4 -36 4 -67 0 -70
-12 -10 -31 -50 -31 -66 0 -11 -5 -14 -17 -10 -19 8 -137 -29 -152 -48 -6 -7
-21 -11 -34 -9 -14 2 -32 -5 -49 -21 -42 -40 -68 -42 -106 -8 -18 16 -34 39
-37 51 -6 31 -14 41 -41 51 -15 6 -24 18 -25 32 -1 29 -88 150 -117 163 -12 5
-22 14 -22 20 0 14 -71 81 -83 77 -5 -1 -11 5 -13 15 -7 26 -128 113 -157 113
-14 0 -30 7 -37 15 -7 8 -18 15 -24 15 -6 0 -26 13 -44 30 -35 32 -53 35 -167
31 -71 -3 -114 -20 -149 -61 -13 -17 -29 -30 -34 -30 -14 0 -82 -105 -93 -143
-5 -19 -21 -52 -35 -72 -14 -21 -32 -55 -41 -76 -8 -22 -20 -39 -25 -39 -6 0
-8 -9 -5 -20 3 -11 1 -20 -3 -20 -12 0 -50 -82 -50 -108 0 -11 -6 -25 -12 -29
-28 -18 -98 -179 -98 -225 0 -16 -4 -37 -9 -46 -15 -31 -21 -82 -9 -79 7 1 13
-7 15 -18 3 -15 2 -16 -5 -7 -7 11 -10 10 -16 -3 -10 -28 -7 -33 24 -40 24 -5
30 -12 30 -33 1 -28 30 -72 49 -72 6 0 2 20 -10 48 -12 27 -18 58 -15 74 3 16
0 31 -10 38 -11 10 -12 16 -3 26 6 8 17 14 24 14 7 0 24 9 37 20 24 18 29 19
76 5 57 -17 68 -28 70 -70 1 -16 11 -37 22 -47 20 -16 28 -48 12 -48 -5 0 -35
13 -68 29 -85 41 -104 46 -104 27 0 -9 8 -16 17 -16 9 0 29 -12 44 -26 14 -14
34 -26 43 -28 9 -1 25 -12 36 -24 19 -20 30 -21 150 -21 72 0 130 3 130 7 0
14 -24 32 -43 32 -26 0 -59 19 -52 30 4 6 17 3 31 -7 24 -15 26 -15 55 13 27
25 28 29 12 36 -10 3 -46 7 -80 7 -38 1 -65 6 -70 14 -14 22 -32 101 -33 146
l0 44 23 -21 c13 -12 29 -22 35 -22 7 0 12 -3 12 -7 0 -5 32 -42 70 -83 39
-41 70 -77 71 -80 0 -3 3 -18 5 -35 10 -67 14 -75 39 -75 19 0 25 5 25 22 l0
21 23 -21 c22 -21 87 -32 87 -14 0 4 -16 18 -35 31 -19 13 -44 38 -55 56 -22
35 -101 105 -119 105 -7 0 -16 11 -21 25 -5 14 -15 25 -22 25 -7 1 -35 26 -63
57 -62 69 -108 113 -117 113 -5 0 -8 -16 -8 -36 0 -29 -3 -35 -16 -30 -9 3
-42 6 -74 6 -54 0 -58 2 -69 29 -18 42 -10 115 12 119 9 2 17 -3 17 -10 0 -16
77 -78 96 -78 45 0 1 65 -68 101 -20 10 -40 24 -43 30 -8 11 49 153 72 180 13
15 17 15 51 -1 20 -10 67 -48 104 -84 37 -36 71 -66 75 -66 4 -1 28 -25 53
-55 24 -30 52 -57 61 -60 18 -6 76 -73 94 -108 6 -12 25 -27 43 -33 33 -10 49
-23 129 -104 52 -53 68 -73 84 -101 6 -13 32 -44 57 -71 l45 -48 282 0 283 0
6 25 c4 14 3 31 -1 38 -12 19 -4 53 28 113 23 42 27 59 19 69 -8 10 -8 19 -1
34 6 11 8 27 5 35 -3 9 -1 16 5 16 6 0 10 20 10 50 -1 28 5 59 13 72 19 30 36
95 48 184 5 40 14 82 19 95 4 13 12 74 16 134 6 94 11 117 35 160 16 28 33 70
39 95 11 41 41 120 62 162 15 29 23 98 11 98 -6 0 -12 -10 -14 -22 -2 -12 -9
-23 -17 -26 -11 -4 -12 5 -6 44 4 27 9 108 10 179 1 111 5 136 23 172 12 23
22 47 22 54 0 6 7 17 15 23 8 6 23 38 32 71 9 33 24 70 33 81 15 21 17 21 37
4 12 -10 22 -26 23 -36 1 -48 5 -64 15 -61 5 3 9 14 8 26 -2 12 4 32 12 45 9
13 18 40 20 60 3 21 9 45 14 55 24 44 3 247 -29 286 -14 17 13 40 50 43 23 2
39 -3 47 -14 6 -9 16 -13 22 -10 10 6 33 52 44 86 3 11 8 8 15 -10 7 -19 6
-29 -5 -42 -18 -20 -9 -38 18 -38 18 0 23 13 23 72 0 9 3 15 7 12 4 -2 10 0
14 6 3 5 14 10 24 10 10 0 24 7 31 15 20 24 71 43 125 47 38 3 61 -1 94 -19
24 -13 50 -23 57 -23 7 0 26 -11 42 -25 l30 -25 6 23 c6 20 8 19 29 -18 17
-30 30 -41 51 -43 16 -2 38 -15 48 -28 11 -13 29 -24 40 -24 19 0 20 4 13 55
-3 30 -4 59 -1 64 9 13 46 1 46 -15 0 -10 13 -14 45 -14 l45 0 1 -57 c2 -102
9 -216 14 -222 9 -9 34 34 29 49 -4 8 -13 47 -21 85 -16 76 -11 117 28 238 28
86 24 207 -7 207 -11 0 -14 -19 -14 -82 0 -45 -5 -96 -11 -113 -11 -30 -15
-32 -58 -30 -25 1 -62 5 -81 8 -43 9 -104 17 -146 21 -74 6 -133 90 -99 142 9
14 14 28 12 31 -3 2 -1 18 3 34 6 20 5 31 -5 36 -8 5 -15 41 -19 103 -3 52 -9
119 -12 148 l-6 53 44 -30 c64 -44 59 -16 -11 56 -8 8 -16 34 -18 57 l-3 43
85 -1 c47 -1 85 -4 85 -7 0 -3 9 -16 20 -29 11 -12 22 -38 26 -56 3 -19 10
-34 15 -34 4 0 16 -16 25 -35 13 -28 22 -35 45 -35 24 0 29 4 29 25 0 16 -6
25 -16 25 -14 0 -16 8 -10 55 6 55 1 66 -22 43 -10 -10 -14 -10 -21 0 -4 7
-15 10 -24 7 -13 -6 -15 0 -11 32 3 21 5 50 5 66 0 15 4 27 10 27 12 0 39 25
39 36 0 16 35 32 47 22 9 -7 13 -7 13 0 0 16 79 92 95 92 9 0 20 12 26 27 13
35 39 53 66 46 15 -3 25 0 29 11 8 21 33 20 50 -1 11 -15 13 -15 14 -3 0 31
156 140 198 140 22 0 64 29 58 39 -6 9 -94 7 -118 -4 -10 -4 -18 -13 -18 -20
0 -8 -10 -17 -22 -21 -32 -9 -59 -35 -51 -48 3 -6 3 -8 -2 -4 -4 4 -20 1 -36
-7 -15 -8 -37 -15 -49 -15 -18 0 -95 -43 -110 -61 -3 -3 -25 -18 -50 -34 -25
-15 -56 -38 -70 -50 -14 -13 -43 -31 -65 -42 -29 -13 -43 -27 -51 -52 -6 -19
-20 -44 -31 -55 -11 -12 -23 -29 -26 -40 -5 -12 -13 -16 -25 -11 -41 17 -97
16 -131 -3 -40 -22 -44 -28 -67 -104 -12 -41 -14 -62 -6 -70 7 -9 6 -17 -4
-26 -11 -10 -16 -8 -26 10 -15 28 -12 72 9 117 12 27 14 48 7 105 -8 63 -12
71 -31 74 -13 2 -23 -1 -23 -5 0 -5 -9 -19 -20 -31 -11 -12 -25 -32 -30 -44
-8 -20 -9 -18 -9 14 -1 27 4 40 19 48 11 6 20 19 20 30 0 11 11 27 25 36 26
17 33 48 14 59 -6 4 -13 -2 -16 -14 -3 -12 -12 -21 -21 -21 -9 0 -27 -10 -40
-22 l-25 -23 8 30 c11 46 11 57 -2 62 -7 3 -18 -17 -27 -48 -9 -29 -22 -59
-29 -68 -19 -22 -57 -132 -57 -164 0 -14 -4 -28 -9 -31 -4 -3 -11 -26 -14 -51
-5 -53 -8 -58 -31 -49 -12 4 -15 12 -9 23 16 34 14 175 -2 236 -10 33 -19 71
-22 85 -8 34 -22 50 -44 50 -12 0 -19 -7 -19 -20 0 -11 7 -20 15 -20 16 0 20
-27 6 -48 -6 -10 -10 -7 -15 13 -5 20 -10 25 -18 17 -8 -8 -8 -39 1 -114 8
-69 8 -104 1 -106 -20 -7 -9 -37 27 -74 l37 -38 -32 -12 c-30 -12 -32 -15 -32
-64 0 -45 4 -56 26 -73 30 -23 64 -28 64 -8 -1 16 -25 47 -37 47 -10 0 -25 51
-18 58 1 2 21 -4 43 -13 41 -17 64 -45 37 -45 -18 0 -20 -36 -2 -43 10 -4 10
-7 0 -18 -7 -7 -13 -21 -13 -31 0 -21 -25 -24 -37 -5 -4 7 -28 28 -53 47 -25
19 -51 43 -58 52 -7 10 -22 18 -33 18 -20 0 -58 66 -59 103 0 9 -4 17 -10 17
-5 0 -10 15 -10 33 0 17 -5 50 -11 72 -19 71 -25 144 -17 203 4 31 12 98 17
147 l11 90 -31 28 c-24 22 -37 27 -57 22 -15 -4 -29 -11 -33 -16 -12 -19 -39
3 -39 32 0 32 -55 99 -80 98 -8 0 -23 -8 -33 -19z m175 -382 c-7 -7 -12 -8
-12 -2 0 14 12 26 19 19 2 -3 -1 -11 -7 -17z m526 -83 c-9 -9 -30 14 -23 25 6
9 10 8 17 -4 6 -10 8 -19 6 -21z m-204 -87 c8 -65 -6 -85 -22 -30 -34 119 -34
134 -2 104 10 -10 20 -40 24 -74z m299 -27 c-32 -21 -39 -103 -13 -158 26 -56
46 -143 37 -166 -3 -9 -16 -17 -27 -17 -11 0 -20 -7 -20 -15 0 -8 -4 -15 -9
-15 -12 0 -21 52 -21 128 0 49 4 68 17 77 21 15 8 38 -18 30 -16 -5 -19 -1
-19 25 0 27 -3 30 -21 25 -14 -5 -20 -3 -18 7 3 27 -1 38 -16 38 -17 0 -21
-55 -5 -65 6 -3 17 -19 25 -35 13 -25 13 -32 0 -57 -8 -15 -12 -36 -9 -45 3
-10 2 -23 -1 -28 -7 -12 -33 19 -55 65 -17 38 -19 123 -2 130 6 2 12 19 13 37
0 32 17 86 18 61 1 -6 8 -18 16 -27 13 -12 21 -13 40 -4 14 6 27 19 30 28 3 9
15 22 28 27 19 9 23 7 31 -14 5 -15 5 -28 -1 -32z m82 -213 c9 -36 11 -199 3
-205 -5 -2 -8 -13 -8 -24 0 -11 -4 -18 -9 -14 -6 3 -10 59 -10 125 0 66 -3
125 -6 130 -3 6 1 10 9 10 9 0 18 -10 21 -22z m-160 -158 c3 -5 1 -10 -4 -10
-6 0 -11 5 -11 10 0 6 2 10 4 10 3 0 8 -4 11 -10z m58 -100 c17 -14 17 -17 4
-28 -11 -10 -20 -9 -43 3 -16 8 -34 15 -40 15 -9 0 -21 18 -35 55 -2 5 10 12
26 15 24 4 34 0 50 -20 11 -14 28 -32 38 -40z m-495 -43 c4 -22 -24 -33 -43
-17 -12 10 -13 16 -4 27 16 18 43 13 47 -10z m105 -27 c15 -16 34 -30 42 -30
8 0 15 -4 15 -9 0 -5 14 -12 30 -16 17 -4 30 -9 30 -12 0 -3 -11 -18 -25 -35
-14 -16 -25 -25 -25 -19 0 6 -8 11 -17 11 -10 0 -36 14 -57 30 -22 17 -45 30
-52 30 -22 0 -25 18 -9 50 20 38 35 38 68 0z m287 -99 c0 -12 -37 -24 -50 -16
-20 12 -10 25 20 25 17 0 30 -4 30 -9z m-320 -11 c0 -5 9 -10 19 -10 11 0 23
-5 26 -10 4 -6 15 -8 26 -5 15 5 19 1 19 -14 0 -12 -4 -21 -9 -21 -4 0 -19
-10 -32 -22 -28 -26 -39 -29 -55 -14 -6 6 -22 19 -36 30 -18 13 -24 25 -20 43
3 15 10 22 18 19 7 -3 16 -1 19 4 8 13 25 13 25 0z m166 -38 c-22 -5 -30 3
-21 18 5 8 11 7 22 -2 15 -12 14 -13 -1 -16z m564 -42 c0 -5 -4 -10 -10 -10
-5 0 -10 5 -10 10 0 6 5 10 10 10 6 0 10 -4 10 -10z m-920 -150 c0 -6 -18 -26
-40 -46 -22 -20 -48 -49 -56 -64 -12 -20 -22 -26 -40 -22 -29 5 -29 3 -3 49
28 51 57 81 83 86 40 8 56 7 56 -3z m122 -53 c-4 -14 3 -27 23 -43 26 -20 27
-25 17 -51 -7 -15 -14 -57 -16 -92 -2 -35 -8 -67 -14 -73 -12 -12 -32 37 -31
82 0 19 0 68 0 109 -1 81 6 122 19 101 4 -7 5 -21 2 -33z m-1229 -1599 c6 -65
-9 -167 -29 -189 -8 -8 -14 -19 -14 -22 0 -4 -8 -16 -17 -27 -32 -37 -73 -20
-110 47 -17 30 -16 32 5 26 13 -3 34 12 68 50 48 52 74 108 74 156 0 43 17 11
23 -41z m847 -118 c0 -5 -4 -10 -10 -10 -5 0 -10 5 -10 10 0 6 5 10 10 10 6 0
10 -4 10 -10z m-1574 -200 c8 -7 14 -18 14 -25 0 -14 -27 -28 -40 -20 -4 3
-10 -2 -14 -10 -3 -8 -13 -15 -22 -15 -16 0 -16 1 -1 18 10 10 17 25 17 33 0
8 6 27 13 42 10 23 12 24 15 8 2 -11 10 -25 18 -31z m188 -34 c3 -11 11 -52
17 -90 11 -56 19 -74 46 -99 41 -39 42 -49 2 -45 -29 4 -34 9 -54 69 -26 78
-33 91 -46 84 -5 -4 -9 6 -9 20 0 21 -9 30 -42 46 -24 11 -33 18 -21 16 12 -3
29 0 38 7 28 20 65 16 69 -8z"/>
<path d="M5330 3680 c0 -5 5 -10 10 -10 6 0 10 5 10 10 0 6 -4 10 -10 10 -5 0
-10 -4 -10 -10z"/>
<path d="M2783 3608 c-15 -19 -33 -77 -33 -104 0 -16 6 -24 18 -24 17 0 37 48
44 109 3 27 -14 38 -29 19z"/>
<path d="M2036 3481 c-10 -15 13 -63 27 -58 6 2 12 9 11 15 -1 7 -2 21 -2 32
-2 20 -26 28 -36 11z"/>
<path d="M4138 3482 c-9 -2 -19 -10 -22 -18 -7 -18 23 -63 42 -64 16 0 15 15
-2 33 -10 10 -12 17 -4 25 14 14 6 28 -14 24z"/>
<path d="M3471 3435 c-11 -19 -17 -35 -13 -35 5 0 23 16 42 35 30 31 32 35 13
35 -13 0 -29 -13 -42 -35z"/>
<path d="M3705 3458 c-16 -44 -29 -278 -17 -278 13 0 32 87 32 148 0 26 4 53
8 59 10 16 3 83 -9 83 -5 0 -12 -6 -14 -12z"/>
<path d="M4460 3421 c0 -11 5 -23 10 -26 6 -3 10 3 10 14 0 11 -4 23 -10 26
-5 3 -10 -3 -10 -14z"/>
<path d="M4185 3400 c-7 -11 -6 -12 35 -14 17 0 29 3 27 8 -5 14 -54 18 -62 6z"/>
<path d="M3423 3373 c-4 -10 -17 -33 -30 -52 -13 -19 -23 -42 -23 -52 0 -23
-4 -23 -34 -4 -13 9 -38 20 -56 25 -40 11 -59 -7 -60 -57 0 -26 4 -33 19 -33
11 0 21 5 23 12 7 21 37 -1 59 -44 12 -24 30 -53 41 -65 11 -12 17 -26 14 -32
-9 -14 33 -91 50 -91 8 0 14 -4 14 -9 0 -15 33 -23 41 -10 4 7 10 -7 14 -34
10 -63 32 -64 25 -2 -2 26 -24 50 -77 87 -29 19 -43 36 -43 51 0 13 -4 27 -8
32 -5 6 -14 29 -21 51 -11 34 -11 46 0 67 63 116 79 150 79 162 0 21 -19 19
-27 -2z"/>
<path d="M5190 3250 c0 -5 9 -19 19 -29 23 -23 38 -98 22 -114 -7 -7 -15 -6
-26 3 -18 15 -16 17 -39 -36 -16 -37 -16 -44 -2 -77 20 -50 46 -49 46 1 0 42
15 63 37 55 12 -5 14 -1 8 15 -3 12 -2 22 3 22 12 0 12 89 0 96 -4 3 -8 13 -8
23 0 20 -30 51 -48 51 -7 0 -12 -4 -12 -10z m7 -182 c-3 -8 -6 -5 -6 6 -1 11
2 17 5 13 3 -3 4 -12 1 -19z"/>
<path d="M5109 3179 c-9 -30 -9 -42 1 -54 16 -20 30 -10 30 21 0 21 4 24 20
19 32 -10 24 21 -10 38 l-30 15 -11 -39z"/>
<path d="M5570 3154 c0 -14 4 -23 10 -19 6 3 10 15 10 26 0 10 -4 19 -10 19
-5 0 -10 -12 -10 -26z"/>
<path d="M3682 3150 c0 -14 2 -19 5 -12 2 6 2 18 0 25 -3 6 -5 1 -5 -13z"/>
<path d="M3656 3093 c-10 -37 -4 -93 10 -93 8 0 14 -6 14 -13 0 -18 40 -100
52 -108 17 -11 -34 -49 -64 -49 -21 0 -28 -5 -28 -19 0 -10 -9 -21 -20 -24
-23 -6 -27 -27 -5 -27 9 0 20 -11 24 -24 8 -21 16 -23 77 -25 85 -2 102 -11
96 -49 -2 -16 1 -33 7 -36 6 -4 11 -17 11 -29 0 -18 2 -19 10 -7 16 24 1 113
-22 133 -16 13 -21 32 -23 79 -2 37 -8 66 -16 72 -21 17 -39 53 -39 80 0 13
-9 34 -19 48 -11 14 -26 43 -33 66 -14 45 -24 52 -32 25z m104 -313 c4 -3 9
-13 13 -22 8 -24 -23 -32 -72 -18 -41 11 -64 31 -43 38 7 2 18 9 25 15 7 7 22
17 32 23 17 10 22 8 30 -10 5 -11 12 -23 15 -26z"/>
<path d="M5089 3058 c-1 -13 -1 -26 0 -30 1 -9 -2 -10 -44 -12 -20 -1 -31 -7
-33 -18 -4 -21 1 -22 28 -5 17 10 22 9 30 -3 6 -9 6 -18 0 -24 -16 -16 -12
-86 4 -86 17 0 26 -22 26 -61 0 -16 5 -29 10 -29 6 0 10 -11 10 -24 0 -13 9
-35 21 -50 14 -18 19 -34 15 -51 -7 -29 2 -75 15 -75 5 0 9 20 9 45 0 44 5 50
38 46 23 -3 12 19 -14 29 -14 6 -28 19 -31 30 -3 11 -9 20 -13 20 -4 0 -12 24
-18 53 -6 28 -14 66 -18 82 -3 17 -7 47 -8 67 -1 20 -5 40 -8 44 -4 3 -2 14 4
24 12 19 5 50 -12 50 -5 0 -11 -10 -11 -22z"/>
<path d="M4380 2985 c0 -15 4 -24 10 -20 6 3 10 12 10 20 0 8 -4 17 -10 20 -6
4 -10 -5 -10 -20z"/>
<path d="M3357 2937 c-5 -39 1 -53 20 -45 12 5 9 77 -3 82 -7 3 -14 -12 -17
-37z"/>
<path d="M4997 2946 c-8 -20 3 -87 18 -109 12 -17 13 -16 19 8 4 17 1 31 -8
41 -10 10 -13 25 -9 44 6 31 -10 43 -20 16z"/>
<path d="M3017 2869 c7 -7 15 -10 18 -7 3 3 -2 9 -12 12 -14 6 -15 5 -6 -5z"/>
<path d="M4400 2856 c0 -9 5 -16 10 -16 6 0 10 4 10 9 0 6 -4 13 -10 16 -5 3
-10 -1 -10 -9z"/>
<path d="M3517 2853 c-11 -10 -8 -25 3 -18 5 3 7 -14 3 -45 -6 -56 3 -66 19
-20 8 24 13 28 23 20 28 -23 27 12 -1 41 -29 30 -36 34 -47 22z"/>
<path d="M3143 2832 c-8 -5 -8 -12 3 -26 12 -18 14 -18 20 -2 8 21 -6 38 -23
28z"/>
<path d="M3345 2831 c-3 -5 -1 -12 5 -16 5 -3 10 1 10 9 0 18 -6 21 -15 7z"/>
<path d="M4470 2816 c0 -9 5 -16 10 -16 6 0 10 4 10 9 0 6 -4 13 -10 16 -5 3
-10 -1 -10 -9z"/>
<path d="M1682 2748 c2 -13 8 -23 13 -23 6 0 11 10 13 23 2 15 -2 22 -13 22
-11 0 -15 -7 -13 -22z"/>
<path d="M3010 2711 c0 -19 69 -83 81 -76 8 5 -1 20 -27 46 -40 39 -54 47 -54
30z"/>
<path d="M4430 2611 c0 -6 5 -13 10 -16 6 -3 10 -21 11 -38 0 -26 2 -28 8 -12
9 22 -6 75 -20 75 -5 0 -9 -4 -9 -9z"/>
<path d="M3500 2584 c0 -8 5 -12 10 -9 6 3 10 10 10 16 0 5 -4 9 -10 9 -5 0
-10 -7 -10 -16z"/>
<path d="M5236 2592 c-2 -4 -1 -14 5 -22 7 -12 9 -10 9 8 0 23 -5 28 -14 14z"/>
<path d="M3855 2548 c8 -19 84 -58 100 -52 11 5 13 -2 8 -30 -5 -34 -4 -36 22
-36 15 0 40 -11 57 -25 16 -14 38 -25 48 -25 9 0 23 -7 30 -15 7 -8 20 -15 29
-15 9 0 41 -25 71 -55 30 -30 60 -55 67 -55 18 0 16 6 -12 34 -14 14 -25 36
-25 50 0 27 -24 56 -46 56 -8 0 -47 16 -87 35 -39 19 -80 35 -90 35 -22 0 -34
29 -16 40 19 12 8 20 -42 31 -24 6 -50 15 -57 22 -21 17 -63 21 -57 5z"/>
<path d="M5165 2549 c-7 -11 40 -115 57 -125 5 -3 17 1 26 10 13 13 14 20 6
34 -7 9 -19 16 -28 14 -10 -2 -18 7 -22 25 -10 45 -13 53 -23 53 -5 0 -13 -5
-16 -11z"/>
<path d="M4460 2511 c0 -5 5 -13 10 -16 6 -3 10 -2 10 4 0 5 -4 13 -10 16 -5
3 -10 2 -10 -4z"/>
<path d="M3540 2405 c0 -8 4 -15 10 -15 5 0 7 7 4 15 -4 8 -8 15 -10 15 -2 0
-4 -7 -4 -15z"/>
<path d="M2775 2372 c-43 -25 -52 -40 -59 -102 -6 -59 6 -158 20 -169 5 -3 18
-24 27 -47 18 -40 40 -56 114 -84 26 -10 40 -9 77 3 24 8 47 13 50 9 3 -3 6 2
6 10 0 9 7 18 15 22 8 3 15 17 15 31 0 14 6 34 13 46 10 17 7 30 -28 97 -23
42 -51 82 -63 88 -31 15 -82 65 -82 79 0 6 -15 16 -33 23 -39 14 -34 15 -72
-6z m-23 -154 c-9 -9 -12 -7 -12 12 0 19 3 21 12 12 9 -9 9 -15 0 -24z m113
-18 c13 0 25 -8 29 -17 3 -10 18 -34 32 -53 22 -30 25 -41 19 -80 -7 -48 -15
-63 -22 -42 -3 6 -13 12 -24 12 -11 0 -22 7 -25 15 -4 10 -14 13 -29 9 -30 -7
-53 25 -61 90 -6 39 -4 49 12 61 10 8 25 12 32 10 8 -3 24 -5 37 -5z"/>
<path d="M2830 2091 c0 -11 5 -23 10 -26 6 -4 10 5 10 19 0 14 -4 26 -10 26
-5 0 -10 -9 -10 -19z"/>
<path d="M2543 2332 c-26 -4 -30 -29 -9 -57 13 -18 14 -18 25 4 18 33 10 57
-16 53z"/>
<path d="M2480 2246 c0 -19 -4 -38 -10 -41 -16 -10 -12 -45 5 -45 17 0 20 -25
5 -43 -29 -34 -60 -90 -60 -107 0 -11 -4 -20 -10 -20 -5 0 -10 -13 -10 -30 0
-16 -4 -30 -10 -30 -5 0 -10 -9 -10 -20 0 -11 4 -20 8 -20 14 0 62 56 62 72 0
9 7 24 16 33 20 19 34 6 34 -32 0 -13 4 -23 9 -23 5 0 16 -3 24 -6 17 -6 51
52 41 68 -4 6 -7 34 -9 63 -3 64 -11 78 -40 71 -17 -4 -24 -1 -28 14 -6 23 8
25 49 10 33 -13 43 -5 21 17 -14 14 -17 15 -17 3 0 -21 -38 43 -42 71 -5 38
-28 35 -28 -5z m-50 -306 c0 -5 -4 -10 -10 -10 -5 0 -10 5 -10 10 0 6 5 10 10
10 6 0 10 -4 10 -10z"/>
<path d="M3550 2220 c0 -5 5 -10 10 -10 6 0 10 5 10 10 0 6 -4 10 -10 10 -5 0
-10 -4 -10 -10z"/>
<path d="M4315 2199 c13 -43 36 -80 45 -74 13 8 -6 55 -32 79 -20 19 -20 19
-13 -5z"/>
<path d="M3440 2171 c0 -6 9 -15 20 -21 13 -7 20 -7 20 -1 0 6 -9 15 -20 21
-13 7 -20 7 -20 1z"/>
<path d="M3550 2140 c0 -5 5 -10 10 -10 6 0 10 5 10 10 0 6 -4 10 -10 10 -5 0
-10 -4 -10 -10z"/>
<path d="M3366 2132 c-3 -5 -5 -25 -4 -45 1 -20 -7 -48 -16 -62 -10 -15 -15
-33 -12 -41 3 -8 -3 -31 -14 -52 -11 -20 -20 -42 -20 -49 0 -14 -20 -54 -31
-63 -4 -3 -8 -14 -10 -25 -5 -25 -24 -17 -23 9 0 11 -7 27 -16 36 -10 10 -20
24 -22 31 -4 10 -11 7 -26 -11 -12 -14 -21 -31 -22 -37 0 -7 -7 -13 -15 -13
-7 0 -18 -8 -23 -17 -10 -17 -63 -20 -129 -7 -30 6 -31 5 -25 -17 11 -37 49
-104 66 -118 9 -8 16 -22 16 -34 0 -11 8 -34 19 -51 10 -17 24 -48 31 -69 7
-21 18 -41 26 -44 8 -3 14 -13 14 -23 0 -21 49 -100 62 -100 21 0 -13 104 -38
114 -8 3 -14 14 -14 24 0 10 -4 22 -9 28 -5 5 -21 41 -36 79 -15 39 -34 77
-41 86 -20 22 -17 32 6 26 10 -3 35 3 53 13 26 14 64 20 152 23 90 4 120 8
126 20 9 16 93 19 117 4 6 -5 12 -7 13 -5 10 42 8 46 -26 51 -19 3 -50 13 -70
22 -25 13 -39 14 -48 7 -23 -19 -42 3 -39 45 5 59 12 74 30 69 15 -5 17 5 16
94 0 95 -5 122 -18 102z m-71 -362 c-3 -5 -11 -10 -16 -10 -6 0 -7 5 -4 10 3
6 11 10 16 10 6 0 7 -4 4 -10z"/>
<path d="M3550 2100 c0 -5 5 -10 10 -10 6 0 10 5 10 10 0 6 -4 10 -10 10 -5 0
-10 -4 -10 -10z"/>
<path d="M4596 2074 c-8 -20 0 -32 14 -18 5 5 5 15 1 22 -6 11 -10 10 -15 -4z"/>
<path d="M3191 1964 c0 -11 3 -14 6 -6 3 7 2 16 -1 19 -3 4 -6 -2 -5 -13z"/>
<path d="M2650 1852 c0 -16 -11 -52 -24 -79 -13 -26 -25 -54 -28 -62 -3 -11
-8 -10 -22 4 -16 17 -19 17 -34 2 -14 -15 -14 -22 -4 -52 8 -20 10 -49 6 -71
-5 -26 -4 -35 5 -30 6 4 11 2 11 -4 0 -6 4 -9 9 -5 5 3 7 21 4 39 -6 38 23
100 43 92 7 -3 22 6 34 19 20 22 22 31 16 96 -6 74 -16 106 -16 51z"/>
<path d="M2380 1851 c0 -5 5 -13 10 -16 6 -3 10 -2 10 4 0 5 -4 13 -10 16 -5
3 -10 2 -10 -4z"/>
<path d="M2695 1840 c-3 -5 -4 -14 0 -19 7 -12 6 -87 -1 -171 -4 -36 -8 -117
-9 -180 -2 -63 -8 -134 -13 -156 -10 -47 -5 -101 11 -111 5 -3 7 -1 3 5 -3 6
-2 13 3 16 11 7 26 110 22 153 -1 17 2 40 8 51 7 13 7 22 -2 31 -9 9 -9 14 0
19 13 8 21 187 10 199 -4 3 1 12 10 21 17 17 13 79 -8 126 -13 27 -24 33 -34
16z"/>
<path d="M2327 1823 c-10 -9 -8 -43 2 -43 5 0 14 7 21 15 17 21 -4 48 -23 28z"/>
<path d="M2381 1784 c0 -11 3 -14 6 -6 3 7 2 16 -1 19 -3 4 -6 -2 -5 -13z"/>
<path d="M3547 1748 c-7 -27 -3 -32 18 -25 19 8 20 47 1 47 -7 0 -16 -10 -19
-22z"/>
<path d="M3938 1742 c3 -23 9 -32 19 -28 7 3 16 0 19 -7 2 -7 16 -14 29 -15
14 -1 34 -11 45 -22 24 -24 40 -26 40 -5 0 14 -94 65 -118 65 -5 0 -16 10 -24
22 -15 22 -15 22 -10 -10z"/>
<path d="M3595 1750 c-4 -6 -3 -16 3 -22 6 -6 12 -6 17 2 4 6 3 16 -3 22 -6 6
-12 6 -17 -2z"/>
<path d="M2342 1731 c-12 -10 -22 -28 -22 -41 0 -12 -11 -35 -25 -52 -14 -16
-25 -36 -25 -44 0 -24 26 -15 37 14 10 28 12 26 28 -23 11 -35 25 -11 25 43 0
31 4 72 9 90 11 36 3 40 -27 13z"/>
<path d="M4820 1710 c0 -5 5 -10 10 -10 6 0 10 5 10 10 0 6 -4 10 -10 10 -5 0
-10 -4 -10 -10z"/>
<path d="M3645 1650 c3 -5 11 -10 16 -10 6 0 7 5 4 10 -3 6 -11 10 -16 10 -6
0 -7 -4 -4 -10z"/>
<path d="M3681 1614 c0 -11 3 -14 6 -6 3 7 2 16 -1 19 -3 4 -6 -2 -5 -13z"/>
<path d="M3700 1570 c0 -5 5 -10 11 -10 5 0 7 5 4 10 -3 6 -8 10 -11 10 -2 0
-4 -4 -4 -10z"/>
<path d="M2260 1546 c0 -8 -11 -28 -25 -44 -36 -42 -31 -64 5 -23 25 28 41 81
25 81 -3 0 -5 -6 -5 -14z"/>
<path d="M2532 1526 c-7 -15 -20 -26 -31 -26 -11 0 -25 -9 -31 -20 -11 -20
-12 -20 -40 8 -16 16 -37 32 -48 34 -16 5 -19 -1 -21 -44 -1 -32 4 -59 14 -75
9 -13 15 -36 14 -51 -1 -15 2 -35 6 -44 4 -10 5 -25 1 -33 -3 -8 -1 -15 5 -15
5 0 14 -10 19 -22 14 -33 4 70 -14 144 -7 32 -11 60 -8 63 11 11 24 4 18 -10
-4 -10 6 -20 31 -30 35 -15 37 -14 60 7 36 34 54 78 45 112 l-8 28 -12 -26z"/>
<path d="M3717 1533 c-9 -15 5 -63 19 -63 8 0 14 4 14 9 0 17 -28 62 -33 54z"/>
<path d="M4494 1515 c-12 -29 2 -35 24 -11 21 25 21 26 2 26 -12 0 -23 -7 -26
-15z"/>
<path d="M4447 1474 c-8 -8 1 -24 14 -24 5 0 9 7 9 15 0 15 -12 20 -23 9z"/>
<path d="M4170 1445 c-20 -24 -5 -43 32 -41 28 1 33 6 36 29 3 24 0 27 -26 27
-16 0 -35 -7 -42 -15z"/>
<path d="M4336 1447 c-16 -11 -16 -15 -3 -25 17 -15 62 1 71 24 7 18 -44 19
-68 1z"/>
<path d="M3735 1440 c-4 -6 -1 -18 7 -27 7 -9 12 -24 10 -35 -2 -10 1 -17 7
-16 5 2 17 -6 25 -17 13 -17 17 -18 25 -6 7 11 5 19 -7 27 -14 10 -15 15 -4
26 10 10 16 10 32 0 16 -10 20 -10 20 0 0 25 -15 35 -48 33 -21 -1 -36 3 -39
12 -6 16 -19 17 -28 3z"/>
<path d="M3956 1441 c-10 -15 4 -39 27 -45 12 -3 24 0 28 6 5 8 11 9 21 1 8
-7 22 -7 36 -2 25 9 28 19 10 37 -14 14 -114 16 -122 3z"/>
<path d="M4267 1433 c-16 -16 -6 -30 18 -25 20 3 23 7 14 18 -13 15 -22 17
-32 7z"/>
<path d="M3862 1390 c-12 -32 -6 -40 24 -36 20 3 21 8 9 44 -10 30 -21 28 -33
-8z"/>
<path d="M3930 1360 c0 -24 25 -27 34 -4 9 23 8 24 -14 24 -13 0 -20 -7 -20
-20z"/>
<path d="M3230 1348 c0 -6 8 -20 18 -31 17 -19 16 -19 -16 -12 -32 7 -34 6
-27 -16 9 -28 37 -68 48 -69 4 0 7 15 7 33 0 18 5 38 10 43 8 8 6 15 -5 24 -8
7 -15 19 -15 26 0 8 -4 14 -10 14 -5 0 -10 -5 -10 -12z"/>
<path d="M3490 1335 c0 -8 5 -15 10 -15 6 0 10 7 10 15 0 8 -4 15 -10 15 -5 0
-10 -7 -10 -15z"/>
<path d="M4951 1334 c0 -11 3 -14 6 -6 3 7 2 16 -1 19 -3 4 -6 -2 -5 -13z"/>
<path d="M3671 1264 c0 -11 3 -14 6 -6 3 7 2 16 -1 19 -3 4 -6 -2 -5 -13z"/>
<path d="M3828 1225 c2 -14 6 -25 8 -25 2 0 4 11 4 25 0 14 -4 25 -9 25 -4 0
-6 -11 -3 -25z"/>
<path d="M3268 1204 c-9 -9 4 -52 22 -72 10 -10 25 -33 34 -50 9 -18 20 -32
25 -32 5 0 21 -25 37 -56 15 -31 36 -61 45 -67 16 -12 19 -17 19 -37 0 -5 7
-10 15 -10 17 0 20 16 5 25 -6 4 -24 33 -41 66 -16 33 -39 67 -49 77 -11 9
-20 27 -20 39 0 13 -9 32 -19 42 -10 10 -22 28 -26 40 -6 21 -38 45 -47 35z"/>
<path d="M2667 1183 c-18 -28 -31 -329 -16 -339 5 -3 10 7 11 23 2 43 5 67 8
76 4 11 8 52 15 140 3 43 6 83 8 89 3 13 -19 22 -26 11z m-10 -215 c-3 -8 -6
-5 -6 6 -1 11 2 17 5 13 3 -3 4 -12 1 -19z"/>
<path d="M2413 1154 c-3 -8 -1 -20 6 -27 8 -8 11 -4 11 16 0 30 -7 35 -17 11z"/>
<path d="M4932 1078 c2 -6 10 -14 16 -16 7 -2 10 2 6 12 -7 18 -28 22 -22 4z"/>
<path d="M2437 1043 c-5 -7 -3 -39 3 -70 7 -32 13 -81 15 -109 2 -49 16 -86
40 -111 10 -9 23 -69 29 -127 1 -5 7 -11 13 -13 9 -3 11 5 7 29 -11 68 -25
124 -38 153 -29 64 -35 81 -41 125 -13 105 -20 135 -28 123z"/>
<path d="M4390 1034 c0 -8 5 -12 10 -9 6 4 8 11 5 16 -9 14 -15 11 -15 -7z"/>
<path d="M4610 1025 c0 -8 7 -15 15 -15 8 0 15 7 15 15 0 8 -7 15 -15 15 -8 0
-15 -7 -15 -15z"/>
<path d="M3435 1011 c-3 -5 -1 -12 5 -16 5 -3 10 1 10 9 0 18 -6 21 -15 7z"/>
<path d="M3840 980 c0 -5 5 -10 10 -10 6 0 10 5 10 10 0 6 -4 10 -10 10 -5 0
-10 -4 -10 -10z"/>
<path d="M3782 900 c0 -14 2 -19 5 -12 2 6 2 18 0 25 -3 6 -5 1 -5 -13z"/>
<path d="M2757 886 c-4 -10 -7 -32 -7 -49 0 -28 1 -30 16 -16 12 12 13 24 7
50 -7 27 -11 30 -16 15z"/>
<path d="M3985 859 c-4 -6 0 -18 9 -27 15 -15 16 -15 16 5 0 25 -15 38 -25 22z"/>
<path d="M4120 860 c0 -5 5 -10 10 -10 6 0 10 5 10 10 0 6 -4 10 -10 10 -5 0
-10 -4 -10 -10z"/>
<path d="M2644 812 c-21 -14 -36 -108 -40 -250 -2 -79 -6 -148 -10 -153 -3 -5
0 -17 7 -25 9 -11 9 -20 1 -37 -6 -12 -11 -31 -9 -42 1 -12 -4 -20 -13 -20
-11 0 -14 9 -12 33 2 36 -13 44 -21 10 -2 -13 -16 -62 -31 -111 -14 -48 -26
-93 -26 -100 0 -6 -7 -24 -14 -39 -8 -16 -11 -28 -5 -28 5 0 9 -11 9 -25 0
-23 4 -25 45 -25 43 0 45 1 65 45 24 52 45 264 36 363 -4 38 -2 71 5 84 6 11
13 66 15 122 2 56 6 125 9 154 2 28 4 52 2 52 -1 0 -7 -4 -13 -8z"/>
<path d="M3640 806 c0 -9 5 -16 10 -16 6 0 10 4 10 9 0 6 -4 13 -10 16 -5 3
-10 -1 -10 -9z"/>
<path d="M2753 793 c-17 -6 -16 -28 1 -42 11 -10 16 -8 21 9 8 24 -3 40 -22
33z"/>
<path d="M4010 775 c0 -8 5 -15 10 -15 6 0 10 7 10 15 0 8 -4 15 -10 15 -5 0
-10 -7 -10 -15z"/>
<path d="M3560 736 c0 -9 5 -16 10 -16 6 0 10 4 10 9 0 6 -4 13 -10 16 -5 3
-10 -1 -10 -9z"/>
<path d="M4000 719 c0 -11 4 -18 10 -14 5 3 7 12 3 20 -7 21 -13 19 -13 -6z"/>
<path d="M2740 711 c0 -6 5 -13 10 -16 6 -3 10 1 10 9 0 9 -4 16 -10 16 -5 0
-10 -4 -10 -9z"/>
<path d="M2745 667 c-4 -10 -5 -21 -1 -24 10 -10 18 4 13 24 -4 17 -4 17 -12
0z"/>
<path d="M3667 584 c-12 -12 -8 -32 8 -37 8 -4 17 -2 19 2 7 11 -18 44 -27 35z"/>
<path d="M2731 553 c-9 -17 -5 -173 5 -203 5 -13 7 -13 15 2 10 17 19 185 11
206 -6 17 -20 15 -31 -5z"/>
<path d="M3435 561 c-6 -11 9 -23 19 -14 9 9 7 23 -3 23 -6 0 -12 -4 -16 -9z"/>
<path d="M2552 435 c0 -16 2 -22 5 -12 2 9 2 23 0 30 -3 6 -5 -1 -5 -18z"/>
<path d="M2742 288 c-13 -17 -10 -80 4 -85 7 -2 12 15 13 47 1 53 -1 57 -17
38z"/>
<path d="M2746 142 c-9 -29 3 -51 16 -28 5 10 5 23 0 33 -9 14 -10 14 -16 -5z"/>
<path d="M2747 53 c-6 -38 -2 -53 14 -53 5 0 9 20 9 45 0 54 -15 60 -23 8z"/>
<path d="M2595 10 c-3 -5 -1 -10 4 -10 6 0 11 5 11 10 0 6 -2 10 -4 10 -3 0
-8 -4 -11 -10z"/>
</g>
</svg>
